<svg width="512" height="512" viewBox="0 0 512 512" fill="none" xmlns="http://www.w3.org/2000/svg">
  <path opacity="0.8"
    d="M405.744 281.726L227.96 107.847L137.964 19.7961C128.984 15.9546 119.294 13.9813 109.503 14.0001C66.173 14.0001 30.94 53.123 30.0077 101.713V311.672C29.852 323.515 32.0679 335.271 36.5288 346.271C40.9896 357.27 47.6081 367.297 56.0062 375.778C64.4043 384.26 74.4176 391.03 85.4742 395.702C96.5307 400.374 108.414 402.856 120.445 403.008H369.579C384.212 395.949 396.557 385.013 405.225 371.43C413.893 357.847 418.542 342.154 418.65 326.114C418.642 310.422 414.171 295.046 405.744 281.726Z"
    fill="#E62C5A" />
  <path opacity="0.8"
    d="M391.955 107.992H142.871C128.237 115.051 115.893 125.986 107.225 139.569C98.5562 153.152 93.9073 168.845 93.7999 184.885C93.7845 200.582 98.22 215.971 106.607 229.321L284.391 403.201L374.633 491.203C383.569 495.02 393.206 496.992 402.947 496.999C446.227 496.999 481.46 457.924 482.393 409.335V199.279C482.694 175.37 473.336 152.323 456.377 135.204C439.417 118.085 416.245 108.297 391.955 107.992Z"
    fill="#0FABF6" />
  <path opacity="0.5"
    d="M106.607 229.321L284.392 403.201H369.579C384.212 396.142 396.557 385.207 405.225 371.624C413.893 358.04 418.542 342.347 418.65 326.307C418.657 310.62 414.203 295.245 405.793 281.92L228.009 108.04H142.871C128.245 115.095 115.905 126.023 107.237 139.597C98.5696 153.17 93.9164 168.853 93.7999 184.885C93.7845 200.582 98.22 215.971 106.607 229.321Z"
    fill="#501B8D" />
</svg>
